<svg id="Capa_1" enable-background="new 0 0 512 512" height="512" viewBox="0 0 512 512" width="512" xmlns="http://www.w3.org/2000/svg"><g><g><path d="m512 256.21-2.84 6.12c-.87 1.87-21.76 46.37-62.96 91.32-24.4 26.6-50.9 47.86-78.77 63.16-35.28 19.37-72.77 29.19-111.43 29.19s-76.15-9.82-111.43-29.19c-27.87-15.3-54.37-36.56-78.77-63.16-41.2-44.95-62.09-89.45-62.96-91.32l-2.84-6.12 2.68-6.18c.81-1.88 20.39-46.52 61-91.58 24.02-26.67 50.48-47.96 78.64-63.29 35.55-19.35 73.8-29.16 113.68-29.16s78.13 9.81 113.68 29.16c28.16 15.33 54.62 36.62 78.64 63.29 40.61 45.06 60.19 89.7 61 91.58z" fill="#eaf4f4"/><path d="m512 256.21-2.84 6.12c-.87 1.87-21.76 46.37-62.96 91.32-24.4 26.6-50.9 47.86-78.77 63.16-35.28 19.37-72.77 29.19-111.43 29.19v-380c39.88 0 78.13 9.81 113.68 29.16 28.16 15.33 54.62 36.62 78.64 63.29 40.61 45.06 60.19 89.7 61 91.58z" fill="#cae8ea"/><g><path d="m241 482h30v30h-30z" fill="#cae8ea"/><path d="m96.376 466.052 25.935 15 14.963-25.96-25.935-15z" fill="#cae8ea"/><path d="m374.726 455.092 14.963 25.96 25.935-15-14.963-25.96z" fill="#b1d7e0"/><path d="m241 0h30v30h-30z" fill="#cae8ea"/><path d="m137.274 56.908-14.963-25.96-25.935 15 14.963 25.959z" fill="#cae8ea"/><path d="m415.624 45.948-25.935-15-14.963 25.96 25.935 14.999z" fill="#b1d7e0"/></g><g fill="#b1d7e0"><path d="m256 0h15v30h-15z"/><path d="m256 482h15v30h-15z"/></g></g><path d="m256 216.65 20-37.969-20-40.301c-64.85 0-117.62 52.77-117.62 117.62 0 32.42 13.19 61.83 34.49 83.13l50.702-.702 4.608-54.608c-7.12-7.12-11.53-16.96-11.53-27.82 0-21.73 17.62-39.35 39.35-39.35z" fill="#fbdf63"/><path d="m373.62 256c0 64.85-52.77 117.62-117.62 117.62-32.42 0-61.83-13.19-83.13-34.49l55.31-55.31c7.12 7.12 16.96 11.53 27.82 11.53 21.73 0 39.35-17.62 39.35-39.35z" fill="#09eaa3"/><path d="m373.62 256c0 64.85-52.77 117.62-117.62 117.62v-78.27c21.73 0 39.35-17.62 39.35-39.35z" fill="#14bb87"/><path d="m373.62 256h-78.27c0-21.73-17.62-39.35-39.35-39.35v-78.27c64.85 0 117.62 52.77 117.62 117.62z" fill="#ed2061"/></g></svg>